<svg width="8" height="3" viewBox="0 0 8 3" fill="none" xmlns="http://www.w3.org/2000/svg">
<path d="M6.53125 0.4375C6.62435 0.4375 6.73177 0.448242 6.85352 0.469727C6.97526 0.491211 7.08626 0.53418 7.18652 0.598633C7.28678 0.655924 7.37272 0.738281 7.44434 0.845703C7.51595 0.945964 7.55176 1.08203 7.55176 1.25391C7.55176 1.39714 7.53385 1.54395 7.49805 1.69434C7.4694 1.83757 7.40495 1.97005 7.30469 2.0918C7.21159 2.20638 7.07552 2.30306 6.89648 2.38184C6.71745 2.46061 6.47754 2.5 6.17676 2.5H1.71875C1.48958 2.5 1.30697 2.46061 1.1709 2.38184C1.03483 2.2959 0.927409 2.19564 0.848633 2.08105C0.777018 1.95931 0.730469 1.8304 0.708984 1.69434C0.6875 1.55827 0.676758 1.43652 0.676758 1.3291C0.676758 1.236 0.6875 1.13932 0.708984 1.03906C0.730469 0.931641 0.777018 0.834961 0.848633 0.749023C0.920247 0.655924 1.02409 0.580729 1.16016 0.523438C1.30339 0.466146 1.48958 0.4375 1.71875 0.4375H6.53125Z" fill="white"/>
</svg>
