<svg width="10" height="11" viewBox="0 0 10 11" fill="none" xmlns="http://www.w3.org/2000/svg">
<path d="M4.10156 6.53125H1.69531C1.46615 6.53125 1.26204 6.5026 1.08301 6.44531C0.911133 6.38802 0.767904 6.31283 0.65332 6.21973C0.538737 6.11947 0.452799 6.00846 0.395508 5.88672C0.338216 5.76497 0.30957 5.63965 0.30957 5.51074C0.30957 5.38184 0.338216 5.25651 0.395508 5.13477C0.459961 5.00586 0.549479 4.89486 0.664062 4.80176C0.785807 4.7015 0.936198 4.62272 1.11523 4.56543C1.29427 4.50098 1.50195 4.46875 1.73828 4.46875H4.10156V2.01953C4.10156 1.81901 4.13379 1.63997 4.19824 1.48242C4.26986 1.32487 4.36296 1.19238 4.47754 1.08496C4.59212 0.970378 4.71745 0.88444 4.85352 0.827148C4.98958 0.769857 5.12923 0.741211 5.27246 0.741211C5.50163 0.741211 5.70573 0.827148 5.88477 0.999023C6.07096 1.1709 6.16406 1.44303 6.16406 1.81543V4.46875H8.84961C9.22201 4.46875 9.49414 4.56185 9.66602 4.74805C9.83789 4.92708 9.92383 5.13118 9.92383 5.36035C9.92383 5.50358 9.89518 5.64323 9.83789 5.7793C9.7806 5.91536 9.69466 6.04069 9.58008 6.15527C9.47266 6.26986 9.34017 6.36296 9.18262 6.43457C9.02507 6.49902 8.84603 6.53125 8.64551 6.53125H6.16406V8.92676C6.16406 9.16309 6.13184 9.37077 6.06738 9.5498C6.01009 9.72884 5.93132 9.87923 5.83105 10.001C5.73796 10.1156 5.62695 10.2051 5.49805 10.2695C5.3763 10.3268 5.25098 10.3555 5.12207 10.3555C4.99316 10.3555 4.86784 10.3268 4.74609 10.2695C4.62435 10.2122 4.51335 10.1263 4.41309 10.0117C4.31999 9.89714 4.24479 9.75391 4.1875 9.58203C4.13021 9.40299 4.10156 9.19889 4.10156 8.96973V6.53125Z" fill="white"/>
</svg>
